<?xml version="1.0" encoding="utf-8"?>
<!-- Generator: Adobe Illustrator 28.0.0, SVG Export Plug-In . SVG Version: 6.00 Build 0)  -->
<svg version="1.1" id="_x2014_ÎÓÈ_x5F_1" xmlns="http://www.w3.org/2000/svg" xmlns:xlink="http://www.w3.org/1999/xlink"
	 x="0px" y="0px" viewBox="0 0 1000 250" style="enable-background:new 0 0 1000 250;" xml:space="preserve">
<g>
	<g>
		<path d="M484.75,232.82L484.75,232.82c11.31,0,21.78-6,27.49-15.77l46.18-78.92l26.61,0.62c6.09,0.14,16.09-2.5,21.62-7.02
			c2.46-2.01,3.76-4.21,3.76-6.37c0-2.27-1.42-4.63-4.12-6.83c-5.12-4.18-14.66-7.46-21.27-7.31l-26.61,0.62l-46.18-78.92
			c-5.71-9.76-16.18-15.77-27.49-15.77l0,0l22.69,95.87l-80.36,1.87l-19.24-25c-3.65-4.74-9.3-7.52-15.28-7.52l0,0l10.66,34.24
			c-4.42,0.91-8.61,2.52-12.24,4.88c-0.37,0.24-0.73,0.48-1.08,0.73l-0.14,0.1c-1.29,0.92-1.82,2.44-1.2,3.89
			c0.25,0.57,0.7,1.07,1.25,1.46c0.13,0.09,0.26,0.19,0.4,0.28c3.8,2.62,8.27,4.41,13.01,5.39l-10.66,34.24l0,0
			c5.99,0,11.63-2.78,15.28-7.52l19.24-25l80.37,1.87L484.75,232.82z"/>
	</g>
	<g>
		<path d="M974.53,126.91c-1.03,1.35-2.57,1.24-5.37,1.27c-4.04-0.08-11.18,0.18-14.75-0.14c-1.8-0.27-2.82-1.5-2.55-3.1
			c0.29-1.72,2.28-2.27,3.9-2.25c3.77-0.05,10.61-0.02,14.67-0.01c2.63-0.2,5.68,1.18,4.16,4.16L974.53,126.91z M928.19,126.91
			c-1.03,1.35-2.57,1.24-5.37,1.27c-4.04-0.08-11.18,0.18-14.75-0.14c-1.8-0.27-2.82-1.5-2.55-3.1c0.29-1.72,2.28-2.27,3.9-2.25
			c3.77-0.05,10.61-0.02,14.67-0.01c2.63-0.2,5.68,1.18,4.16,4.16L928.19,126.91z M881.85,126.91c-1.03,1.35-2.57,1.24-5.37,1.27
			c-4.04-0.08-11.18,0.18-14.75-0.14c-1.8-0.27-2.82-1.5-2.55-3.1c0.29-1.72,2.28-2.27,3.9-2.25c3.77-0.05,10.61-0.02,14.67-0.01
			c2.63-0.2,5.68,1.18,4.16,4.16L881.85,126.91z M835.51,126.91c-1.03,1.35-2.57,1.24-5.37,1.27c-4.04-0.08-11.18,0.18-14.75-0.14
			c-1.8-0.27-2.82-1.5-2.55-3.1c0.29-1.72,2.28-2.27,3.9-2.25c3.77-0.05,10.61-0.02,14.67-0.01c2.63-0.2,5.68,1.18,4.16,4.16
			L835.51,126.91z M789.17,126.91c-1.03,1.35-2.57,1.24-5.37,1.27c-4.04-0.08-11.18,0.18-14.75-0.14c-1.8-0.27-2.82-1.5-2.55-3.1
			c0.29-1.72,2.28-2.27,3.9-2.25c3.77-0.05,10.61-0.02,14.67-0.01c2.63-0.2,5.68,1.18,4.16,4.16L789.17,126.91z M742.83,126.91
			c-1.03,1.35-2.57,1.24-5.37,1.27c-4.04-0.08-11.18,0.18-14.75-0.14c-1.8-0.27-2.82-1.5-2.55-3.1c0.29-1.72,2.28-2.27,3.9-2.25
			c3.77-0.05,10.61-0.02,14.67-0.01c2.63-0.2,5.68,1.18,4.16,4.16L742.83,126.91z M696.49,126.91c-1.03,1.35-2.57,1.24-5.37,1.27
			c-4.04-0.08-11.18,0.18-14.75-0.14c-1.8-0.27-2.82-1.5-2.55-3.1c0.29-1.72,2.28-2.27,3.9-2.25c3.77-0.05,10.61-0.02,14.67-0.01
			c2.63-0.2,5.68,1.18,4.16,4.16L696.49,126.91z M650.15,126.91c-1.03,1.35-2.57,1.24-5.37,1.27c-4.04-0.08-11.18,0.18-14.75-0.14
			c-1.8-0.27-2.82-1.5-2.55-3.1c0.29-1.72,2.28-2.27,3.9-2.25c3.77-0.05,10.61-0.02,14.67-0.01c2.63-0.2,5.68,1.18,4.16,4.16
			L650.15,126.91z M603.8,126.91c-1.03,1.35-2.57,1.24-5.37,1.27c-4.04-0.08-11.18,0.18-14.75-0.14c-1.8-0.27-2.82-1.5-2.55-3.1
			c0.29-1.72,2.28-2.27,3.9-2.25c3.77-0.05,10.61-0.02,14.67-0.01c2.63-0.2,5.68,1.18,4.16,4.16L603.8,126.91z M557.46,126.91
			c-1.03,1.35-2.57,1.24-5.37,1.27c-4.04-0.08-11.18,0.18-14.75-0.14c-1.8-0.27-2.82-1.5-2.55-3.1c0.29-1.72,2.28-2.27,3.9-2.25
			c3.77-0.05,10.61-0.02,14.67-0.01c2.63-0.2,5.68,1.18,4.16,4.16L557.46,126.91z M511.12,126.91c-1.03,1.35-2.57,1.24-5.37,1.27
			c-4.04-0.08-11.18,0.18-14.75-0.14c-1.8-0.27-2.82-1.5-2.55-3.1c0.29-1.72,2.28-2.27,3.9-2.25c3.77-0.05,10.61-0.02,14.67-0.01
			c2.63-0.2,5.68,1.18,4.16,4.16L511.12,126.91z M464.78,126.91c-1.03,1.35-2.57,1.24-5.37,1.27c-4.04-0.08-11.18,0.18-14.75-0.14
			c-1.8-0.27-2.82-1.5-2.55-3.1c0.29-1.72,2.28-2.27,3.9-2.25c3.77-0.05,10.61-0.02,14.67-0.01c2.63-0.2,5.68,1.18,4.16,4.16
			L464.78,126.91z M418.44,126.91c-1.03,1.35-2.57,1.24-5.37,1.27c-4.04-0.08-11.18,0.18-14.75-0.14c-1.8-0.27-2.82-1.5-2.55-3.1
			c0.29-1.72,2.28-2.27,3.9-2.25c3.77-0.05,10.61-0.02,14.67-0.01c2.63-0.2,5.68,1.18,4.16,4.16L418.44,126.91z M372.1,126.91
			c-1.03,1.35-2.57,1.24-5.37,1.27c-4.04-0.08-11.18,0.18-14.75-0.14c-1.8-0.27-2.82-1.5-2.55-3.1c0.29-1.72,2.28-2.27,3.9-2.25
			c3.77-0.05,10.61-0.02,14.67-0.01c2.63-0.2,5.68,1.18,4.16,4.16L372.1,126.91z M325.76,126.91c-1.03,1.35-2.57,1.24-5.37,1.27
			c-4.04-0.08-11.18,0.18-14.75-0.14c-1.8-0.27-2.82-1.5-2.55-3.1c0.29-1.72,2.28-2.27,3.9-2.25c3.77-0.05,10.61-0.02,14.67-0.01
			c2.63-0.2,5.68,1.18,4.16,4.16L325.76,126.91z M279.42,126.91c-1.03,1.35-2.57,1.24-5.37,1.27c-4.04-0.08-11.18,0.18-14.75-0.14
			c-1.8-0.27-2.82-1.5-2.55-3.1c0.29-1.72,2.28-2.27,3.9-2.25c3.77-0.05,10.61-0.02,14.67-0.01c2.63-0.2,5.68,1.18,4.16,4.16
			L279.42,126.91z M233.08,126.91c-1.03,1.35-2.57,1.24-5.37,1.27c-4.04-0.08-11.18,0.18-14.75-0.14c-1.8-0.27-2.82-1.5-2.55-3.1
			c0.29-1.72,2.28-2.27,3.9-2.25c3.77-0.05,10.61-0.02,14.67-0.01c2.63-0.2,5.68,1.18,4.16,4.16L233.08,126.91z M186.74,126.91
			c-1.03,1.35-2.57,1.24-5.37,1.27c-4.04-0.08-11.18,0.18-14.75-0.14c-1.8-0.27-2.82-1.5-2.55-3.1c0.29-1.72,2.28-2.27,3.9-2.25
			c3.77-0.05,10.61-0.02,14.67-0.01c2.63-0.2,5.68,1.18,4.16,4.16L186.74,126.91z M140.39,126.91c-1.03,1.35-2.57,1.24-5.37,1.27
			c-4.04-0.08-11.18,0.18-14.75-0.14c-1.8-0.27-2.82-1.5-2.55-3.1c0.29-1.72,2.28-2.27,3.9-2.25c3.77-0.05,10.61-0.02,14.67-0.01
			c2.63-0.2,5.68,1.18,4.16,4.16L140.39,126.91z M94.05,126.91c-1.03,1.35-2.57,1.24-5.37,1.27c-4.04-0.08-11.18,0.18-14.75-0.14
			c-1.8-0.27-2.82-1.5-2.55-3.1c0.29-1.72,2.28-2.27,3.9-2.25c3.77-0.05,10.61-0.02,14.67-0.01c2.63-0.2,5.68,1.18,4.16,4.16
			L94.05,126.91z M47.71,126.91c-1.03,1.35-2.57,1.24-5.37,1.27c-4.04-0.08-11.18,0.18-14.75-0.14c-1.8-0.27-2.82-1.5-2.55-3.1
			c0.29-1.72,2.28-2.27,3.9-2.25c3.77-0.05,10.61-0.02,14.67-0.01c2.63-0.2,5.68,1.18,4.16,4.16L47.71,126.91z"/>
	</g>
</g>
</svg>
